<?xml version="1.0" encoding="UTF-8"?>
<svg width="33px" height="32px" viewBox="0 0 33 32" version="1.1" xmlns="http://www.w3.org/2000/svg" xmlns:xlink="http://www.w3.org/1999/xlink">
    <!-- Generator: Sketch 51.2 (57519) - http://www.bohemiancoding.com/sketch -->
    <title>Group 2</title>
    <desc>Created with Sketch.</desc>
    <defs></defs>
    <g id="Page-1" stroke="none" stroke-width="1" fill="none" fill-rule="evenodd">
        <g id="Group-2">
            <g id="Group">
                <path d="M16.4103,19.139 C18.1093,19.139 19.4873,17.765 19.4873,16.069 C19.4873,14.374 18.1093,13 16.4103,13 C14.7113,13 13.3333,14.374 13.3333,16.069 C13.3333,17.765 14.7113,19.139 16.4103,19.139" id="Fill-202" fill="#F9FBFF"></path>
                <path d="M19.7813,12.051 L21.9443,12.051 C22.1913,12.051 22.3923,11.851 22.3923,11.605 L22.3923,9.446 C22.3923,9.2 22.1913,9 21.9443,9 L19.7813,9 C19.5343,9 19.3333,9.2 19.3333,9.446 L19.3333,11.605 C19.3333,11.851 19.5343,12.051 19.7813,12.051" id="Fill-203" fill="#F9FBFF"></path>
                <path d="M24.3333,22.102 C24.3333,23.15 23.4823,24 22.4313,24 L10.2353,24 C9.1853,24 8.3333,23.15 8.3333,22.102 L8.3333,9.897 C8.3333,8.849 9.1853,8 10.2353,8 L22.4313,8 C23.4823,8 24.3333,8.849 24.3333,9.897 L24.3333,22.102 Z M16.3333,0 C7.4963,0 0.3333,7.163 0.3333,16 C0.3333,24.836 7.4963,32 16.3333,32 C25.1703,32 32.3333,24.836 32.3333,16 C32.3333,7.163 25.1703,0 16.3333,0 L16.3333,0 Z" id="Fill-204" fill="#444444"></path>
                <path d="M21.3913,15.284 C21.3913,17.961 19.2083,20.14 16.5243,20.14 C13.8403,20.14 11.6573,17.961 11.6573,15.284 C11.6573,14.84 11.7173,14.409 11.8303,14 L10.3333,14 L10.3333,20.958 C10.3333,21.205 10.5333,21.405 10.7803,21.405 L22.2673,21.405 C22.5153,21.405 22.7153,21.205 22.7153,20.958 L22.7153,14 L21.2183,14 C21.3313,14.409 21.3913,14.84 21.3913,15.284" id="Fill-205" fill="#F9FBFF"></path>
                <path d="M24.3333,22.102 C24.3333,23.15 23.4823,24 22.4313,24 L10.2353,24 C9.1853,24 8.3333,23.15 8.3333,22.102 L8.3333,9.897 C8.3333,8.849 9.1853,8 10.2353,8 L22.4313,8 C23.4823,8 24.3333,8.849 24.3333,9.897 L24.3333,22.102 Z M16.3333,0 C7.4963,0 0.3333,7.163 0.3333,16 C0.3333,24.836 7.4963,32 16.3333,32 C25.1703,32 32.3333,24.836 32.3333,16 C32.3333,7.163 25.1703,0 16.3333,0 L16.3333,0 Z" id="Fill-204" fill="#F9FBFF"></path>
            </g>
        </g>
    </g>
</svg>